<?xml version="1.0" encoding="UTF-8" standalone="no"?>
<svg xmlns="http://www.w3.org/2000/svg" version="1.1" width="480" height="270" viewbox="0 0 480 270">
<title>undefined</title><path d="M240,0 L0,0 L0,135 L0,270 L240,270 L480,270 L480,135 L480,0 L240,0 " fill="rgb(241, 177, 193)" stroke="none" fill-rule="evenodd"></path><path d="M240,0 L0,0 L0,135 L0,270 L240,270 L480,270 L480,135 L480,0 L240,0 " fill="rgb(255, 255, 255)" stroke="none" fill-rule="evenodd"></path><path d="M250.5,3.5 C249.125,3.225,245.975,4.125,243.5,5.5 C241.025,6.875,236.75,10.475,234,13.5 C231.25,16.525,226.975,22.825,224.5,27.5 C222.025,32.175,218.875,36.675,217.5,37.5 C216.125,38.325,207.35,43.5,198,49 C188.65,54.5,179.875,60.125,178.5,61.5 C177.125,62.875,175.775,66.7,175.5,70 C175.225,73.3,175.225,78.025,175.5,80.5 C175.775,82.975,176.225,89.725,176.5,95.5 C176.775,101.275,177.225,108.025,177.5,110.5 C177.775,112.975,178.45,122.2,179,131 C179.55,139.8,180.225,148.125,180.5,149.5 C180.816,151.079,178.053,154.763,173,159.5 C168.6,163.625,163.425,169.475,161.5,172.5 C159.575,175.525,157.775,178.9,157.5,180 C157.225,181.1,157.9,183.35,159,185 C160.1,186.65,162.8,188.45,165,189 C167.2,189.55,174.625,190,181.5,190 C188.375,190,196.025,190.225,198.5,190.5 C200.975,190.775,205.25,191,208,191 L213,191 L213,220 L213,249 L217.5,254 L222,259 L226,253 L230,247 L230,219 L230,191 L240,191 C245.5,191,252.025,190.775,254.5,190.5 C256.975,190.225,263.275,190,268.5,190 C275.237,190,279.018,189.127,281.5,187 C283.981,184.873,284.854,182.69,284.5,179.5 C284.225,177.025,282.2,172.525,280,169.5 C277.8,166.475,274.425,162.425,272.5,160.5 C270.575,158.575,266.525,155.2,263.5,153 C260.475,150.8,255.75,147.875,253,146.5 C250.25,145.125,246.425,143.325,244.5,142.5 C242.575,141.675,241.225,140.55,241.5,140 C241.775,139.45,245.825,139.675,250.5,140.5 C255.175,141.325,259.45,141.325,260,140.5 C260.55,139.675,261.9,128.65,263,116 C264.1,103.35,265.225,90.975,265.5,88.5 C265.775,86.025,266.45,79.95,267,75 C267.701,68.691,267.252,65.103,265.5,63 C264.125,61.35,258.275,57.075,252.5,53.5 L242,47 L243.5,44 C244.325,42.35,246.575,38.3,248.5,35 C250.425,31.7,252.9,26.525,254,23.5 C255.1,20.475,256.225,15.975,256.5,13.5 C256.775,11.025,256.1,7.875,255,6.5 C253.9,5.125,251.875,3.775,250.5,3.5 M250.5,9 C251.325,9.55,251.775,11.8,251.5,14 C251.225,16.2,250.1,20.475,249,23.5 C247.9,26.525,244.75,32.375,242,36.5 L237,44 L231,40.5 C226.377,37.803,225.23,36.426,226,34.5 C226.55,33.125,228.8,29.075,231,25.5 C233.2,21.925,236.8,17.2,239,15 C241.2,12.8,244.35,10.325,246,9.5 C247.65,8.675,249.675,8.45,250.5,9 M224,50 C225.65,50.55,226.55,51.225,226,51.5 C225.45,51.775,224.1,51.325,223,50.5 C221.526,49.394,221.789,49.263,224,50 M216.5,50.5 C216.775,50.775,218.125,52.35,219.5,54 C220.875,55.65,223.125,56.775,224.5,56.5 C225.875,56.225,227.45,56.225,228,56.5 C228.55,56.775,228.325,58.125,227.5,59.5 C226.675,60.875,225.1,62.225,224,62.5 C222.9,62.775,220.425,62.325,218.5,61.5 L215,60 L215.5,55 C215.775,52.25,216.225,50.225,216.5,50.5 M167.5,61 C167.225,61,165.875,61.9,164.5,63 C163.125,64.1,157.275,69.275,151.5,74.5 C145.605,79.834,138.588,87.947,135.5,93 C132.475,97.95,128.875,104.7,127.5,108 C126.125,111.3,123.875,117.825,122.5,122.5 C121.125,127.175,119.775,137.975,119.5,146.5 C119.225,155.025,119.9,166.05,121,171 C122.1,175.95,124.35,183.15,126,187 C127.65,190.85,131.25,197.6,134,202 C136.75,206.4,142.825,214.05,147.5,219 C152.175,223.95,158.925,230.025,162.5,232.5 C166.075,234.975,171.7,238.35,175,240 C178.3,241.65,184.375,244.125,188.5,245.5 C192.625,246.875,198.025,248.45,200.5,249 L205,250 L205,224.5 L205,199 L198.5,199 C194.925,199,189.975,198.775,187.5,198.5 C185.025,198.225,178.5,198,173,198 C167.5,198,160.975,196.875,158.5,195.5 C156.025,194.125,153.1,191.2,152,189 C150.9,186.8,149.775,183.425,149.5,181.5 C149.225,179.575,150.575,175.075,152.5,171.5 C154.425,167.925,158.475,162.3,161.5,159 C164.525,155.7,168.125,151.875,169.5,150.5 C170.875,149.125,172,145.3,172,142 C172,138.7,171.775,133.975,171.5,131.5 C171.225,129.025,170.775,122.5,170.5,117 C170.225,111.5,169.775,104.975,169.5,102.5 C169.225,100.025,168.775,93.5,168.5,88 C168.225,82.5,167.775,75.975,167.5,73.5 C167.225,71.025,167.225,67.2,167.5,65 C167.775,62.8,167.775,61,167.5,61 M274.5,61 C274.225,61,274.45,62.575,275,64.5 C275.55,66.425,275.1,78.575,274,91.5 C272.9,104.425,271.775,117.025,271.5,119.5 C271.225,121.975,270.325,128.95,269.5,135 L268,146 L275.5,153 C279.625,156.85,285.025,163.15,287.5,167 C289.975,170.85,292.45,175.575,293,177.5 C293.55,179.425,293.55,182.8,293,185 C292.45,187.2,290.875,190.125,289.5,191.5 C288.125,192.875,285.425,194.675,283.5,195.5 C281.575,196.325,275.725,197.225,270.5,197.5 C265.275,197.775,258.525,198,255.5,198 C252.475,198,247.975,198.225,245.5,198.5 C243.025,198.775,240.325,199.225,239.5,199.5 C238.675,199.775,238,211.25,238,225 L238,250 L245.5,248.5 C249.625,247.675,257.5,244.975,263,242.5 C268.5,240.025,276.375,235.525,280.5,232.5 C284.625,229.475,290.7,224.3,294,221 C297.3,217.7,302.475,211.4,305.5,207 C308.525,202.6,312.575,195.625,314.5,191.5 C316.425,187.375,319.125,179.5,320.5,174 C321.875,168.5,323.225,157.7,323.5,150 C323.775,142.3,323.1,131.95,322,127 C320.9,122.05,317.75,113.05,315,107 C312.25,100.95,307.75,92.85,305,89 C302.25,85.15,297.525,79.525,294.5,76.5 C291.475,73.475,285.85,68.75,282,66 C278.15,63.25,274.775,61,274.5,61 " fill="rgb(0, 0, 0)" stroke="none" fill-rule="evenodd"></path><path d="M167.5,61 C167.225,61,165.875,61.9,164.5,63 C163.125,64.1,157.275,69.275,151.5,74.5 C145.605,79.834,138.588,87.947,135.5,93 C132.475,97.95,128.875,104.7,127.5,108 C126.125,111.3,123.875,117.825,122.5,122.5 C121.125,127.175,119.775,137.975,119.5,146.5 C119.225,155.025,119.9,166.05,121,171 C122.1,175.95,124.35,183.15,126,187 C127.65,190.85,131.25,197.6,134,202 C136.75,206.4,142.825,214.05,147.5,219 C152.175,223.95,158.925,230.025,162.5,232.5 C166.075,234.975,171.7,238.35,175,240 C178.3,241.65,184.375,244.125,188.5,245.5 C192.625,246.875,198.025,248.45,200.5,249 L205,250 L205,224.5 L205,199 L198.5,199 C194.925,199,189.975,198.775,187.5,198.5 C185.025,198.225,178.5,198,173,198 C167.5,198,160.975,196.875,158.5,195.5 C156.025,194.125,153.1,191.2,152,189 C150.9,186.8,149.775,183.425,149.5,181.5 C149.225,179.575,150.575,175.075,152.5,171.5 C154.425,167.925,158.475,162.3,161.5,159 C164.525,155.7,168.125,151.875,169.5,150.5 C170.875,149.125,172,145.3,172,142 C172,138.7,171.775,133.975,171.5,131.5 C171.225,129.025,170.775,122.5,170.5,117 C170.225,111.5,169.775,104.975,169.5,102.5 C169.225,100.025,168.775,93.5,168.5,88 C168.225,82.5,167.775,75.975,167.5,73.5 C167.225,71.025,167.225,67.2,167.5,65 C167.775,62.8,167.775,61,167.5,61 M274.5,61 C274.225,61,274.45,62.575,275,64.5 C275.55,66.425,275.1,78.575,274,91.5 C272.9,104.425,271.775,117.025,271.5,119.5 C271.225,121.975,270.325,128.95,269.5,135 L268,146 L275.5,153 C279.625,156.85,285.025,163.15,287.5,167 C289.975,170.85,292.45,175.575,293,177.5 C293.55,179.425,293.55,182.8,293,185 C292.45,187.2,290.875,190.125,289.5,191.5 C288.125,192.875,285.425,194.675,283.5,195.5 C281.575,196.325,275.725,197.225,270.5,197.5 C265.275,197.775,258.525,198,255.5,198 C252.475,198,247.975,198.225,245.5,198.5 C243.025,198.775,240.325,199.225,239.5,199.5 C238.675,199.775,238,211.25,238,225 L238,250 L245.5,248.5 C249.625,247.675,257.5,244.975,263,242.5 C268.5,240.025,276.375,235.525,280.5,232.5 C284.625,229.475,290.7,224.3,294,221 C297.3,217.7,302.475,211.4,305.5,207 C308.525,202.6,312.575,195.625,314.5,191.5 C316.425,187.375,319.125,179.5,320.5,174 C321.875,168.5,323.225,157.7,323.5,150 C323.775,142.3,323.1,131.95,322,127 C320.9,122.05,317.75,113.05,315,107 C312.25,100.95,307.75,92.85,305,89 C302.25,85.15,297.525,79.525,294.5,76.5 C291.475,73.475,285.85,68.75,282,66 C278.15,63.25,274.775,61,274.5,61 " fill="rgb(235, 0, 0)" stroke="none" fill-rule="evenodd"></path></svg>